<?xml version="1.0" encoding="utf-8"?>
<!-- Generator: Adobe Illustrator 19.2.1, SVG Export Plug-In . SVG Version: 6.00 Build 0)  -->
<svg version="1.1" id="layer" xmlns="http://www.w3.org/2000/svg" xmlns:xlink="http://www.w3.org/1999/xlink" x="0px" y="0px"
	 viewBox="0 0 652 652" style="enable-background:new 0 0 652 652;" xml:space="preserve">
<g id="Logo" transform="translate(135.000000, 22.000000)">
	<path id="Fill-1" d="M-105.5,299.4c0,22.5,17.4,38.7,37.5,38.7c20.9,0,37.9-16.3,37.9-39.2c0-23.2-18.1-39-37.9-39
		C-87.7,259.9-105.5,276-105.5,299.4 M-20.9,299c0,26.9-20.5,48-46.9,48c-27.4,0-47-22-47-47.6c0-27.2,20.6-48.4,46.3-48.4
		C-41.5,251-20.9,271.8-20.9,299"/>
	<polygon id="Fill-3" points="6.3,253.3 15.2,253.3 15.2,335.8 49.5,335.8 49.5,344.7 6.3,344.7 	"/>
	<path id="Fill-5" d="M108.3,272.7l-15.4,33.1h30.5L108.3,272.7z M109.5,253.3l41.6,91.4h-9.6l-14-30H89l-13.9,30h-9.9l42.2-91.4
		H109.5z"/>
	<path id="Fill-7" d="M183.1,262.2v31.1c5.1,0.1,10.2,0,14.8,0c7.7,0,13.7-0.5,17.6-3.8c3.1-2.5,5.2-7.3,5.2-11.8
		c0-4.7-2.2-9.3-5.6-12c-4-3.1-9.3-3.4-16.3-3.4H183.1z M174.1,253.3h20.6c9.3,0,16.3,0.6,20.6,2.3c9.1,3.6,14.6,11.7,14.6,22
		c0,8.7-4,15.9-10.3,20c-6.3,4.1-15.5,4.6-27.8,4.6h-8.8v42.5h-8.9V253.3z"/>
	<polygon id="Fill-9" points="257,253.3 266,253.3 266,335.8 300.2,335.8 300.2,344.7 257,344.7 	"/>
	<polygon id="Fill-11" points="323.8,253.3 374.7,253.3 374.7,262.2 332.8,262.2 332.8,290.9 374.7,290.9 374.7,299.8 332.8,299.8 
		332.8,335.8 374.7,335.8 374.7,344.7 323.8,344.7 	"/>
	<polygon id="Fill-13" points="394.9,253.3 405.4,253.3 426.7,289 448.2,253.3 458.5,253.3 431.9,297.6 460.2,344.7 449.8,344.7 
		426.7,306.4 403.4,344.7 393,344.7 421.4,297.6 	"/>
	<g id="Clip-16">
	</g>
	<path id="Fill-15" d="M478.1,339.7v2h1.8c0.7,0,1.1-0.3,1.1-1c0-0.9-0.6-1-1.3-1H478.1z M477.1,338.7h2.7c0.4,0,0.9,0,1.2,0.1
		c0.7,0.2,1.1,0.9,1.1,1.7c0,0.9-0.4,1.2-0.8,1.5c0.6,0.3,0.7,0.6,0.7,1.5v0.8c0,0.6,0.2,0.9,0.3,1.1h-1.2c-0.1-0.4-0.1-0.8-0.2-1
		l0-0.8c0-0.7-0.2-1-1-1h-1.9v2.8h-1.1V338.7z M479.5,337.1c-2.7,0-4.9,2.3-4.9,5.1c0,2.9,2.3,5,4.9,5c2.7,0,4.9-2.2,4.9-5
		C484.4,339.4,482.2,337.1,479.5,337.1L479.5,337.1z M479.5,347.9c-3.1,0-5.7-2.6-5.7-5.8c0-3.1,2.5-5.8,5.7-5.8
		c3.2,0,5.7,2.7,5.7,5.8C485.2,345.4,482.5,347.9,479.5,347.9L479.5,347.9z"/>
</g>
</svg>
